<?xml version="1.0" standalone="no"?>
<!DOCTYPE svg PUBLIC "-//W3C//DTD SVG 20010904//EN"
 "http://www.w3.org/TR/2001/REC-SVG-20010904/DTD/svg10.dtd">
<svg version="1.0" xmlns="http://www.w3.org/2000/svg"
 width="267.000000pt" height="267.000000pt" viewBox="0 0 267.000000 267.000000"
 preserveAspectRatio="xMidYMid meet">
<metadata>
Created by potrace 1.11, written by Peter Selinger 2001-2013
</metadata>
<g transform="translate(0.000000,267.000000) scale(0.100000,-0.100000)"
fill="#000000" stroke="none">
<path d="M29 2311 c-24 -24 -29 -38 -29 -75 0 -40 29 -103 212 -471 l213 -425
-213 -425 c-183 -368 -212 -431 -212 -471 0 -37 5 -51 29 -75 25 -24 38 -29
80 -29 38 0 56 6 77 23 16 14 93 157 199 367 l173 345 175 -352 c106 -212 185
-358 199 -367 29 -21 107 -21 136 0 28 19 52 65 52 98 0 14 -83 192 -185 396
l-185 370 475 0 475 0 -185 -370 c-133 -267 -185 -380 -185 -405 0 -24 9 -45
31 -70 28 -32 36 -35 84 -35 41 0 57 5 78 24 14 13 103 179 198 367 l171 344
179 -356 c192 -384 189 -379 270 -379 51 0 75 13 94 50 32 61 24 82 -165 460
-99 198 -180 362 -180 365 0 3 108 5 240 5 258 0 292 5 324 51 21 30 21 108 0
138 -37 52 -14 51 -994 51 l-910 0 185 370 c102 204 185 382 185 396 0 33 -24
79 -52 98 -29 21 -107 21 -136 0 -14 -9 -93 -155 -199 -367 l-175 -352 -173
345 c-106 210 -183 353 -199 367 -21 17 -39 23 -77 23 -42 0 -55 -5 -80 -29z"/>
</g>
</svg>
